Coordinates
version=1
nRows=14
nColumns=36
inDegrees=yes

Units are S.I. units (second, meters, Newtons, ...)
If the header above contains a line with 'inDegrees', this indicates whether rotational values are in degrees (yes) or radians (no).

endheader
time	pelvis_tilt	pelvis_list	pelvis_rotation	pelvis_tx	pelvis_ty	pelvis_tz	hip_flexion_r	hip_adduction_r	hip_rotation_r	knee_angle_r	knee_angle_r_beta	ankle_angle_r	subtalar_angle_r	mtp_angle_r	hip_flexion_l	hip_adduction_l	hip_rotation_l	knee_angle_l	knee_angle_l_beta	ankle_angle_l	subtalar_angle_l	mtp_angle_l	lumbar_extension	lumbar_bending	lumbar_rotation	arm_flex_r	arm_add_r	arm_rot_r	elbow_flex_r	pro_sup_r	arm_flex_l	arm_add_l	arm_rot_l	elbow_flex_l	pro_sup_l
     14.95000000	     11.28740581	     -4.48728355	     -0.17851479	      0.51684481	      1.04447600	      0.73564997	    -11.46015703	      7.97779551	      5.22182629	      7.33658636	      0.12804759	      9.42013570	     -2.78671100	     -7.49999987	     12.61555872	     -6.89560505	      1.02596851	     57.42118074	      1.00218866	      6.10877158	    -12.30661454	     -7.49999987	    -24.02750742	      5.69706595	      5.43903728	      7.80823048	    -18.36739030	      3.12178979	     32.52657214	     88.48529369	      8.71974071	     -9.18396634	     22.94684007	     17.06085787	     90.30148780
     14.96666670	     10.96785379	     -4.24396092	     -0.43788814	      0.51537381	      1.04379982	      0.73777510	    -11.98551316	      7.73998970	      5.30224899	      7.17464569	      0.12522119	      9.65679575	     -2.65503130	     -7.49999987	     13.30233481	     -6.68111021	      0.50467615	     52.94319969	      0.92403315	      6.78171064	    -11.93349502	     -7.49999987	    -23.93643558	      5.16212420	      5.46692367	      8.10428431	    -18.25007100	      3.20378918	     33.27235131	     88.51465741	      8.84970667	     -9.42042904	     22.77772101	     17.41501132	     90.40525310
     14.98333330	     10.43144363	     -4.08486906	     -0.62393997	      0.51590887	      1.04293289	      0.73848871	    -12.27899844	      7.58822721	      5.23726321	      6.95414480	      0.12137272	      9.85372718	     -2.51158429	     -7.49999987	     14.07221070	     -6.57480078	      0.09041760	     48.30703207	      0.84311676	      7.07332150	    -11.44868988	     -7.49999987	    -23.57798489	      4.76872341	      5.48650290	      8.19056420	    -18.13692530	      3.22693881	     34.04264436	     88.43365019	      8.90741092	     -9.63762097	     22.46931233	     17.79168963	     90.37658087
     15.00000000	      9.90934153	     -3.97201172	     -0.69241832	      0.51705647	      1.04245892	      0.73783681	    -12.58915271	      7.48059009	      5.07093959	      6.68373779	      0.11665323	     10.01887068	     -2.27162893	     -7.49999987	     14.73008609	     -6.48406857	     -0.20231431	     43.63078909	      0.76150092	      7.17754383	    -10.72483896	     -7.49999987	    -23.17141880	      4.48068488	      5.47320417	      8.00374402	    -18.07078484	      3.09647953	     34.98580357	     88.06337281	      8.87212376	     -9.69425830	     21.26283347	     18.13850953	     90.30594082
     15.01666670	      9.35022423	     -3.86582294	     -0.85460588	      0.51708076	      1.04212122	      0.73635680	    -12.79485316	      7.33014663	      5.08419021	      6.48042823	      0.11310481	     10.34076335	     -2.17086482	     -7.49999987	     15.27468611	     -6.35513365	     -0.49263298	     38.84092186	      0.67790197	      6.85189565	    -10.24138630	     -7.49999987	    -22.70931509	      4.22271160	      5.51746462	      7.76854464	    -18.03090795	      2.99234659	     35.82148386	     87.48912488	      8.64666149	     -9.90607594	     20.68101323	     19.01637641	     89.78781619
     15.03333330	      8.75492641	     -3.79524252	     -0.80233473	      0.51687561	      1.04077634	      0.73366423	    -12.89098954	      7.22541299	      4.93798549	      6.33907437	      0.11063772	     10.87671113	     -2.14807383	     -7.49999987	     15.89502773	     -6.18807752	     -0.56479253	     34.18020554	      0.59655713	      6.64134970	     -9.18403283	     -7.49999987	    -22.13216238	      4.09768504	      5.69531747	      7.08041316	    -17.87797317	      1.46641031	     36.92883327	     89.11406895	      8.89504151	     -9.63143549	     18.52865349	     18.84183484	     94.24014992
     15.05000000	      8.21641201	     -3.70062414	     -0.75910949	      0.51830680	      1.03831883	      0.73062337	    -13.04336312	      7.05795028	      4.96369905	      6.17809169	      0.10782804	     11.53828401	     -2.29971170	     -7.49999987	     16.35915697	     -5.97389479	     -0.64630248	     29.52616352	      0.51532877	      6.44843624	     -7.82596035	     -7.49999987	    -21.57145205	      4.01592636	      5.44631552	      6.97100818	    -17.88711433	      1.52976452	     37.34561896	     88.42610381	      8.77019741	     -9.60958987	     17.94405663	     19.13566308	     93.54122001
     15.06666670	      7.78712015	     -3.59653850	     -0.64435529	      0.52121458	      1.03598341	      0.72811462	    -13.35844800	      6.83806644	      4.62478885	      5.92722764	      0.10344964	     12.57774354	     -1.75897798	     -7.49999987	     16.52483067	     -5.66467822	     -0.45112837	     24.64950662	      0.43021505	      6.22524157	     -6.49093871	     -7.49999987	    -21.06511602	      3.92535470	      5.35675712	      6.53845768	    -17.83022396	      1.16294519	     37.88702790	     88.22571832	      8.80205878	     -9.48670371	     17.11167327	     19.28236950	     93.88028949
     15.08333330	      7.37593750	     -3.50167369	     -0.51751620	      0.52419655	      1.03485664	      0.72638717	    -13.83897604	      6.61710037	      4.42831288	      5.38973482	      0.09406862	     13.57784763	     -1.19509062	     -7.49999987	     16.55940174	     -5.33294200	     -0.04366741	     19.70271078	      0.34387717	      6.24239234	     -4.85179422	     -7.49999987	    -20.59678856	      3.88539023	      5.09557484	      6.23775808	    -17.83736650	      1.03882384	     38.24709114	     88.08817361	      8.61118904	     -9.44312932	     16.68353750	     19.65141678	     93.83907892
     15.10000000	      6.80530882	     -3.45963915	     -0.58030934	      0.52643196	      1.03465234	      0.72475211	    -14.24820092	      6.41415505	      4.59390001	      4.66711642	      0.08145655	     14.47770189	     -0.72033110	     -7.49999987	     16.68668609	     -5.11904869	      0.24887409	     14.95033028	      0.26093249	      6.57645826	     -2.69476775	     -7.49999987	    -19.89765165	      3.85856882	      5.11625751	      5.77572137	    -17.83118094	      0.65427702	     38.48705464	     87.75534081	      8.48955506	     -9.22072548	     16.15734127	     19.60842724	     93.74136132
     15.11666670	      6.35050411	     -3.42269953	     -0.66360807	      0.52666201	      1.03431203	      0.72190110	    -14.82031516	      6.19524282	      4.63920383	      3.87196276	      0.06757850	     15.43045307	     -0.03547869	     -7.49999987	     16.72633310	     -4.85425131	      0.85824215	     10.85815949	      0.18951063	      6.73431623	     -1.09726111	     -7.49999987	    -19.30355358	      3.85353748	      5.13478776	      5.51607565	    -17.89334423	      0.79858823	     38.44678886	     86.57538657	      8.32892492	     -9.03878924	     16.17301103	     19.69239140	     92.55920939
     15.13333330	      5.94552269	     -3.37174112	     -0.79283422	      0.52459271	      1.03249934	      0.71810702	    -15.41277472	      5.94728877	      4.63428518	      3.12061760	      0.05446505	     16.32072345	      0.60458677	     -7.49999987	     16.86063395	     -4.56221648	      1.34867215	      7.93296446	      0.13845635	      6.82083058	      0.22590137	     -7.49999987	    -18.72570064	      3.83496519	      5.13094111	      5.48936515	    -17.97420271	      1.11975533	     38.20888125	     86.05947445	      8.11128715	     -8.85410762	     15.72450464	     19.86644656	     92.04324237
     15.15000000	      5.49191211	     -3.32116859	     -1.00580487	      0.52258306	      1.02931074	      0.71437563	    -15.89795314	      5.68047223	      4.84337851	      2.45201754	      0.04279578	     17.00189030	      0.77779858	     -7.49999987	     17.19506436	     -4.24888853	      1.80804543	      6.27249302	      0.10947566	      6.72742686	      0.87815562	     -7.49999987	    -18.08326035	      3.85295788	      5.27806103	      5.45737029	    -18.01193857	      1.17122902	     38.18121467	     86.06086328	      7.96157354	     -8.63120624	     15.66301489	     19.98860469	     92.02754523
     15.16666670	      5.20100034	     -3.14313895	     -1.35335127	      0.52303838	      1.02668997	      0.71187787	    -16.49489448	      5.21553655	      4.72805113	      1.90627208	      0.03327072	     17.77844050	      1.52409435	     -7.49999987	     17.34523129	     -3.83737960	      1.80307288	      5.57649160	      0.09732814	      6.34538970	      1.32579472	     -7.49999987	    -17.55151835	      3.62979824	      5.42883633	      5.80455565	    -18.08534428	      2.08662080	     37.54486197	     84.30561533	      7.78938008	     -8.40610069	     15.23394826	     19.92997677	     89.99728810
